<?xml version="1.0" encoding="UTF-8" standalone="no"?>
<!-- Created with Inkscape (http://www.inkscape.org/) -->

<svg
   xmlns:dc="http://purl.org/dc/elements/1.1/"
   xmlns:cc="http://creativecommons.org/ns#"
   xmlns:rdf="http://www.w3.org/1999/02/22-rdf-syntax-ns#"
   xmlns:svg="http://www.w3.org/2000/svg"
   xmlns="http://www.w3.org/2000/svg"
   xmlns:sodipodi="http://sodipodi.sourceforge.net/DTD/sodipodi-0.dtd"
   xmlns:inkscape="http://www.inkscape.org/namespaces/inkscape"
   width="303"
   height="303"
   viewBox="0 0 80.168748 80.168752"
   version="1.1"
   id="svg8"
   inkscape:export-filename="/home/uttara/code/source/kb/QC/data/kannada.png"
   inkscape:export-xdpi="96"
   inkscape:export-ydpi="96"
   inkscape:version="0.92.3 (2405546, 2018-03-11)"
   sodipodi:docname="drawing.svg">
  <defs
     id="defs2" />
  <sodipodi:namedview
     id="base"
     pagecolor="#ffffff"
     bordercolor="#666666"
     borderopacity="1.0"
     inkscape:pageopacity="0.0"
     inkscape:pageshadow="2"
     inkscape:zoom="1.4"
     inkscape:cx="173.29448"
     inkscape:cy="158.8835"
     inkscape:document-units="mm"
     inkscape:current-layer="layer1"
     showgrid="false"
     units="px"
     inkscape:showpageshadow="false"
     inkscape:window-width="1600"
     inkscape:window-height="843"
     inkscape:window-x="0"
     inkscape:window-y="27"
     inkscape:window-maximized="1" />
  <metadata
     id="metadata5">
    <rdf:RDF>
      <cc:Work
         rdf:about="">
        <dc:format>image/svg+xml</dc:format>
        <dc:type
           rdf:resource="http://purl.org/dc/dcmitype/StillImage" />
        <dc:title></dc:title>
      </cc:Work>
    </rdf:RDF>
  </metadata>
  <g
     inkscape:label="Layer 1"
     inkscape:groupmode="layer"
     id="layer1"
     transform="translate(0,-216.83123)">
    <circle
       style="fill:none;fill-opacity:1;fill-rule:evenodd;stroke:#cc6600;stroke-width:2;stroke-linecap:square;stroke-linejoin:miter;stroke-miterlimit:4;stroke-dasharray:none;stroke-dashoffset:0;stroke-opacity:1;paint-order:markers fill stroke"
       id="path815"
       cx="40.084373"
       cy="256.91559"
       r="39.507294" />
    <g
       aria-label="ಕ"
       transform="matrix(0.77895381,0,0,0.68934648,132.47815,164.9816)"
       style="font-style:normal;font-variant:normal;font-weight:bold;font-stretch:normal;font-size:5.33333349px;line-height:1.25;font-family:sans-serif;-inkscape-font-specification:'sans-serif Bold';letter-spacing:0px;word-spacing:0px;fill:none;fill-opacity:1;stroke:#cc6600;stroke-opacity:1"
       id="flowRoot817"
       inkscape:export-xdpi="96"
       inkscape:export-ydpi="96">
      <path
         d="m -126.06531,144.02396 q 0,3.58244 2.2556,6.10341 2.32195,2.52097 5.50634,2.52097 3.18439,0 5.44,-2.52097 2.32195,-2.52097 2.32195,-6.10341 0,-3.58244 -2.32195,-6.10341 -2.25561,-2.52098 -5.44,-2.52098 -3.18439,0 -5.50634,2.52098 -2.2556,2.52097 -2.2556,6.10341 z m -9.48683,-13.40097 h 14.66146 v -5.57268 h -14.66146 v -5.17463 h 26.73559 q 1.5922,0 2.72,-0.99513 1.12781,-0.99512 1.12781,-2.45463 0,-1.1278 -1.06147,-2.32195 -0.99512,-1.19414 -2.78634,-1.99024 l 3.44976,-4.31219 q 2.58732,1.52585 4.04683,3.8478 1.525853,2.25561 1.525853,4.77658 0,3.58244 -2.520973,6.10341 -2.52098,2.52098 -6.10342,2.52098 h -7.29755 v 5.57268 h 14.66145 v 4.77658 h -7.3639 q 1.85757,1.59219 2.85269,3.84781 1.06146,2.2556 1.06146,4.77658 0,6.10341 -4.04683,10.4156 -4.04683,4.24585 -9.75219,4.24585 -5.70536,0 -9.75219,-4.17951 -4.04683,-4.17951 -4.04683,-10.08389 0,-2.78634 0.99512,-5.10829 0.99512,-2.38829 2.85269,-3.91415 h -7.29756 z"
         style="font-size:85.33333588px;fill:#cc6600;fill-opacity:1;stroke:#cc6600;stroke-width:0.79609716;stroke-opacity:1"
         id="path834"
         inkscape:connector-curvature="0" />
    </g>
    <g
       style="font-style:normal;font-variant:normal;font-weight:bold;font-stretch:normal;font-size:5.33333349px;line-height:1.25;font-family:sans-serif;-inkscape-font-specification:'sans-serif Bold';letter-spacing:0px;word-spacing:0px;fill:#000000;fill-opacity:1;stroke:none"
       id="flowRoot825" />
  </g>
</svg>
